# xmcd CD database file
#
# Track frame offsets:
#	150
#	14612
#	37892
#
# Disc length: 869 seconds
#
# Revision: 0
# Processed by: cddbd v1.5PL3 Copyright (c) Steve Scherf et al.
# Submitted via: CDex 1.51
#
DISCID=1a036303
DTITLE=Moby - Run On
DYEAR=1900
DGENRE=Blues
TTITLE0=Run On
TTITLE1=Run On - Dave Clarke Remix
TTITLE2=Run On - Moby Young and Funky Mix
EXTD=
EXTT0=
EXTT1=
EXTT2=
PLAYORDER=
